# xmcd
#
# Track frame offsets:
#	180
#	11574
#	24559
#	44140
#	53866
#	67041
#	83790
#	96625
#	116795
#	129462
#
# Disc length: 1884 seconds
#
# Revision: 1
# Processed by: cddbd v1.4PL0 Copyright (c) Steve Scherf et al.
# Submitted via: CDmax 1.9
#
DISCID=90075a0a
DTITLE=Ennis Sisters - Ennis Sisters Christmas
DYEAR=2002
DGENRE=Country
TTITLE0=Ennis Road
TTITLE1=Silent Night
TTITLE2=Christmas Must Be Tonight
TTITLE3=Christmas Day
TTITLE4=Midnight Clear
TTITLE5=Friendly Beasts
TTITLE6=Angel Gabriel
TTITLE7=I'll Be There Christmas Eve
TTITLE8=Christmas Angel
TTITLE9=Joyous New Year
EXTD=
EXTT0=
EXTT1=
EXTT2=
EXTT3=
EXTT4=
EXTT5=
EXTT6=
EXTT7=
EXTT8=
EXTT9=
PLAYORDER=
